# xmcd
#
# Track frame offsets: 
#        150
#        18662
#        36607
#        57664
#        72385
#        90000
#        117897
#        127360
#        148437
#        163117
#        178759
#        204097
#        220487
#
# Disc length: 3118 seconds
#
# Revision: 2
# Processed by: cddbd v1.5.2PL0 Copyright (c) Steve Scherf et al.
# Submitted via: ExactAudioCopy v1.0b2
#
DISCID=d10c2c0d
DTITLE=Topper Price - Long Way from Home
DYEAR=1997
DGENRE=Blues
TTITLE0=I'm Ready
TTITLE1=Terra Plain Blues
TTITLE2=You Don't Have To Go
TTITLE3=Long Way From Home
TTITLE4=Mellow Down Easy
TTITLE5=Who's Been Talking
TTITLE6=Where's Topper?
TTITLE7=Help Me Baby
TTITLE8=Wade in the Water
TTITLE9=Worried Bout You Baby
TTITLE10=Kind Hearted Woman
TTITLE11=Carol
TTITLE12=Someday I'm Gonna Take You Home
EXTD=
EXTT0=
EXTT1=
EXTT2=
EXTT3=
EXTT4=
EXTT5=
EXTT6=
EXTT7=
EXTT8=
EXTT9=
EXTT10=
EXTT11=
EXTT12=
PLAYORDER=
